<svg xmlns="http://www.w3.org/2000/svg" width="2000" height="2000" viewBox="0 0 2000 2000">
  <defs>
    <style>
      .cls-1 {
        opacity: 0.02;
      }

      .cls-2 {
        fill: #fff;
        fill-rule: evenodd;
      }
    </style>
  </defs>
  <g class="cls-1">
    <path id="RESEDA" class="cls-2" d="M1423.12,1881.9a73.731,73.731,0,0,0,20.05-8.75,51.357,51.357,0,0,0,16.92-17.27q6.825-11.1,6.82-28.3,0-16.9-7.46-28.22-7.47-11.295-21.61-16.99t-34.05-5.68h-72.51v205.58h11.09v-97.82h69.1l41.51,97.82h12.8Zm-80.75-9.1v-84.74h61.13q25.17,0,38.32,9.74t13.15,31.78q0,23.175-15.57,33.19-15.57,10.035-45.28,10.03h-51.75Zm297.71,109.47v-11.66l-110.89-.28v-86.16h99.52v-11.66h-99.52v-84.45H1636.1v-11.37h-118v205.58h121.98Zm152.62-4.41q15.855-7.245,23.82-19.33a47.321,47.321,0,0,0,7.96-26.59,64.166,64.166,0,0,0-2.27-17.06,48.673,48.673,0,0,0-7.33-15.35,49.735,49.735,0,0,0-13.29-12.59,67.149,67.149,0,0,0-20.19-8.6l-43.08-11.37q-23.6-6.255-32.84-14.65t-9.24-21.61q0-11.79,5.12-20.26a43.571,43.571,0,0,1,13.36-13.93,61.129,61.129,0,0,1,17.92-8.1,71.046,71.046,0,0,1,18.76-2.63,79.744,79.744,0,0,1,25.95,4.19,46.778,46.778,0,0,1,20.76,14.07q8.445,9.885,10.02,26.95h12.51a51.093,51.093,0,0,0-7.6-26.87q-7.755-13.08-23.04-21.54t-38.17-8.46q-20.34,0-35.47,7.46-15.15,7.47-23.53,20.33a52.016,52.016,0,0,0-8.39,29.08q0,18.33,12.08,29.78t34.41,17.13l44.93,11.38q12.93,3.27,20.97,9.24a36.7,36.7,0,0,1,11.87,14.5,47,47,0,0,1,3.84,19.48,33.157,33.157,0,0,1-7.61,21.47q-7.605,9.375-20.97,14.71t-30.99,5.33a81.87,81.87,0,0,1-27.87-4.69,57.92,57.92,0,0,1-22.25-14.07,47.535,47.535,0,0,1-12.3-23.32h-12.51a57.637,57.637,0,0,0,9.03,22.82,61.607,61.607,0,0,0,16.85,16.63,77.346,77.346,0,0,0,22.67,10.24,98.522,98.522,0,0,0,26.38,3.48Q1776.85,1985.11,1792.7,1977.86Zm204.1,4.41v-11.66l-110.9-.28v-86.16h99.53v-11.66H1885.9v-84.45h106.92v-11.37H1874.81v205.58H1996.8Zm56.15,0h30.14q37.83,0,62.49-11.02t36.68-34.05q12.015-23.025,12.01-59.29,0-34.26-10.94-56.58t-34.55-33.27q-23.61-10.95-61.71-11.09-6.39,0-12.44-.07t-10.8-.07q-4.77,0-7.68-.07c-1.94-.05-3.01-0.07-3.2-0.07v205.58Zm31-193.93q31.41,0,53.38,7.97a62.02,62.02,0,0,1,33.49,27.65q11.5,19.695,11.51,55.09,0,33.555-11.16,53.67-11.16,20.13-33.41,29.01t-55.52,8.88h-17.06V1788.34h18.77Zm147.86,193.93,24.17-64.83h94.12l23.6,64.83h12.23l-75.07-205.58h-15.64l-75.35,205.58h11.94Zm71.37-193.64,42.65,116.58h-85.87Z"/>
    <path id="RESEDA-2" data-name="RESEDA" class="cls-2" d="M307.124,1881.9a73.815,73.815,0,0,0,20.046-8.75,51.363,51.363,0,0,0,16.919-17.27q6.825-11.1,6.824-28.3,0-16.9-7.464-28.22-7.464-11.295-21.61-16.99t-34.051-5.68h-72.51v205.58h11.09v-97.82h69.1l41.515,97.82h12.8Zm-80.756-9.1v-84.74H287.5q25.166,0,38.317,9.74t13.151,31.78q0,23.175-15.568,33.19-15.569,10.035-45.283,10.03H226.368Zm297.714,109.47v-11.66l-110.9-.28v-86.16h99.523v-11.66H413.185v-84.45H520.1v-11.37h-118v205.58H524.082Zm152.622-4.41q15.852-7.245,23.815-19.33a47.345,47.345,0,0,0,7.961-26.59,63.965,63.965,0,0,0-2.274-17.06,48.761,48.761,0,0,0-7.322-15.35,49.9,49.9,0,0,0-13.294-12.59,67.1,67.1,0,0,0-20.189-8.6l-43.079-11.37q-23.6-6.255-32.842-14.65t-9.242-21.61q0-11.79,5.119-20.26a43.626,43.626,0,0,1,13.364-13.93,61.1,61.1,0,0,1,17.914-8.1,71.091,71.091,0,0,1,18.767-2.63,79.722,79.722,0,0,1,25.947,4.19,46.783,46.783,0,0,1,20.758,14.07q8.457,9.885,10.023,26.95h12.512a51.029,51.029,0,0,0-7.607-26.87q-7.75-13.08-23.032-21.54t-38.174-8.46q-20.334,0-35.473,7.46t-23.53,20.33a52.071,52.071,0,0,0-8.388,29.08q0,18.33,12.085,29.78t34.406,17.13l44.928,11.38q12.935,3.27,20.97,9.24a36.663,36.663,0,0,1,11.872,14.5,47.016,47.016,0,0,1,3.839,19.48,33.154,33.154,0,0,1-7.607,21.47q-7.607,9.375-20.971,14.71t-30.994,5.33a81.847,81.847,0,0,1-27.866-4.69,57.927,57.927,0,0,1-22.25-14.07,47.444,47.444,0,0,1-12.3-23.32H562.04a57.516,57.516,0,0,0,9.028,22.82,61.739,61.739,0,0,0,16.848,16.63,77.517,77.517,0,0,0,22.677,10.24,98.491,98.491,0,0,0,26.373,3.48Q660.852,1985.11,676.7,1977.86Zm204.1,4.41v-11.66l-110.9-.28v-86.16h99.522v-11.66H769.9v-84.45H876.818v-11.37h-118v205.58H880.8Zm56.154,0h30.141q37.816,0,62.486-11.02t36.68-34.05q12.015-23.025,12.01-59.29,0-34.26-10.94-56.58t-34.55-33.27q-23.61-10.95-61.7-11.09-6.4,0-12.441-.07t-10.805-.07q-4.765,0-7.677-.07c-1.944-.05-3.01-0.07-3.2-0.07v205.58Zm30.994-193.93q31.419,0,53.383,7.97a62.02,62.02,0,0,1,33.49,27.65q11.505,19.695,11.51,55.09,0,33.555-11.16,53.67-11.16,20.13-33.41,29.01t-55.519,8.88H949.18V1788.34h18.767Zm147.863,193.93,24.17-64.83h94.12l23.6,64.83h12.23l-75.07-205.58h-15.64l-75.35,205.58h11.94Zm71.37-193.64,42.65,116.58h-85.87Z"/>
    <path id="RESEDA-3" data-name="RESEDA" class="cls-2" d="M1607.12,1628.9a73.731,73.731,0,0,0,20.05-8.75,51.357,51.357,0,0,0,16.92-17.27q6.825-11.1,6.82-28.3,0-16.9-7.46-28.22-7.47-11.295-21.61-16.99t-34.05-5.68h-72.51v205.58h11.09v-97.82h69.1l41.51,97.82h12.8Zm-80.75-9.1v-84.74h61.13q25.17,0,38.32,9.74t13.15,31.78q0,23.175-15.57,33.19-15.57,10.035-45.28,10.03h-51.75Zm297.71,109.47v-11.66l-110.89-.28v-86.16h99.52v-11.66h-99.52v-84.45H1820.1v-11.37h-118v205.58h121.98Zm152.62-4.41q15.855-7.245,23.82-19.33a47.321,47.321,0,0,0,7.96-26.59,64.166,64.166,0,0,0-2.27-17.06,48.673,48.673,0,0,0-7.33-15.35,49.735,49.735,0,0,0-13.29-12.59,67.149,67.149,0,0,0-20.19-8.6l-43.08-11.37q-23.6-6.255-32.84-14.65t-9.24-21.61q0-11.79,5.12-20.26a43.571,43.571,0,0,1,13.36-13.93,61.129,61.129,0,0,1,17.92-8.1,71.046,71.046,0,0,1,18.76-2.63,79.744,79.744,0,0,1,25.95,4.19,46.778,46.778,0,0,1,20.76,14.07q8.445,9.885,10.02,26.95h12.51a51.093,51.093,0,0,0-7.6-26.87q-7.755-13.08-23.04-21.54t-38.17-8.46q-20.34,0-35.47,7.46-15.15,7.47-23.53,20.33a52.016,52.016,0,0,0-8.39,29.08q0,18.33,12.08,29.78t34.41,17.13l44.93,11.38q12.93,3.27,20.97,9.24a36.7,36.7,0,0,1,11.87,14.5,47,47,0,0,1,3.84,19.48,33.157,33.157,0,0,1-7.61,21.47q-7.605,9.375-20.97,14.71t-30.99,5.33a81.87,81.87,0,0,1-27.87-4.69,57.92,57.92,0,0,1-22.25-14.07,47.535,47.535,0,0,1-12.3-23.32h-12.51a57.637,57.637,0,0,0,9.03,22.82,61.607,61.607,0,0,0,16.85,16.63,77.346,77.346,0,0,0,22.67,10.24,98.522,98.522,0,0,0,26.38,3.48Q1960.85,1732.11,1976.7,1724.86Zm204.1,4.41v-11.66l-110.9-.28v-86.16h99.53v-11.66H2069.9v-84.45h106.92v-11.37H2058.81v205.58H2180.8Zm56.15,0h30.14q37.83,0,62.49-11.02t36.68-34.05q12.015-23.025,12.01-59.29,0-34.26-10.94-56.58t-34.55-33.27q-23.61-10.95-61.71-11.09-6.39,0-12.44-.07t-10.8-.07q-4.77,0-7.68-.07c-1.94-.05-3.01-0.07-3.2-0.07v205.58Zm31-193.93q31.41,0,53.38,7.97a62.02,62.02,0,0,1,33.49,27.65q11.5,19.695,11.51,55.09,0,33.555-11.16,53.67-11.16,20.13-33.41,29.01t-55.52,8.88h-17.06V1535.34h18.77Zm147.86,193.93,24.17-64.83h94.12l23.6,64.83h12.23l-75.07-205.58h-15.64l-75.35,205.58h11.94Zm71.37-193.64,42.65,116.58h-85.87Z"/>
    <path id="RESEDA-4" data-name="RESEDA" class="cls-2" d="M1239.12,1363.9a73.731,73.731,0,0,0,20.05-8.75,51.357,51.357,0,0,0,16.92-17.27q6.825-11.1,6.82-28.3,0-16.9-7.46-28.22-7.47-11.295-21.61-16.99t-34.05-5.68h-72.51v205.58h11.09v-97.82h69.1l41.51,97.82h12.8Zm-80.75-9.1v-84.74h61.13q25.17,0,38.32,9.74t13.15,31.78q0,23.175-15.57,33.19-15.57,10.035-45.28,10.03h-51.75Zm297.71,109.47v-11.66l-110.89-.28v-86.16h99.52v-11.66h-99.52v-84.45H1452.1v-11.37h-118v205.58h121.98Zm152.62-4.41q15.855-7.245,23.82-19.33a47.321,47.321,0,0,0,7.96-26.59,64.166,64.166,0,0,0-2.27-17.06,48.673,48.673,0,0,0-7.33-15.35,49.735,49.735,0,0,0-13.29-12.59,67.149,67.149,0,0,0-20.19-8.6l-43.08-11.37q-23.6-6.255-32.84-14.65t-9.24-21.61q0-11.79,5.12-20.26a43.571,43.571,0,0,1,13.36-13.93,61.129,61.129,0,0,1,17.92-8.1,71.046,71.046,0,0,1,18.76-2.63,79.744,79.744,0,0,1,25.95,4.19,46.778,46.778,0,0,1,20.76,14.07q8.445,9.885,10.02,26.95h12.51a51.093,51.093,0,0,0-7.6-26.87q-7.755-13.08-23.04-21.54t-38.17-8.46q-20.34,0-35.47,7.46-15.15,7.47-23.53,20.33a52.016,52.016,0,0,0-8.39,29.08q0,18.33,12.08,29.78t34.41,17.13l44.93,11.38q12.93,3.27,20.97,9.24a36.7,36.7,0,0,1,11.87,14.5,47,47,0,0,1,3.84,19.48,33.157,33.157,0,0,1-7.61,21.47q-7.605,9.375-20.97,14.71t-30.99,5.33a81.87,81.87,0,0,1-27.87-4.69,57.92,57.92,0,0,1-22.25-14.07,47.535,47.535,0,0,1-12.3-23.32h-12.51a57.637,57.637,0,0,0,9.03,22.82,61.607,61.607,0,0,0,16.85,16.63,77.346,77.346,0,0,0,22.67,10.24,98.522,98.522,0,0,0,26.38,3.48Q1592.85,1467.11,1608.7,1459.86Zm204.1,4.41v-11.66l-110.9-.28v-86.16h99.53v-11.66H1701.9v-84.45h106.92v-11.37H1690.81v205.58H1812.8Zm56.15,0h30.14q37.83,0,62.49-11.02t36.68-34.05q12.015-23.025,12.01-59.29,0-34.26-10.94-56.58t-34.55-33.27q-23.61-10.95-61.71-11.09-6.39,0-12.44-.07t-10.8-.07q-4.77,0-7.68-.07c-1.94-.05-3.01-0.07-3.2-0.07v205.58Zm31-193.93q31.41,0,53.38,7.97a62.02,62.02,0,0,1,33.49,27.65q11.505,19.695,11.51,55.09,0,33.555-11.16,53.67-11.16,20.13-33.41,29.01t-55.52,8.88h-17.06V1270.34h18.77Zm147.86,193.93,24.17-64.83h94.12l23.6,64.83h12.23l-75.07-205.58h-15.64l-75.35,205.58h11.94Zm71.37-193.64,42.65,116.58h-85.87Z"/>
    <path id="RESEDA-5" data-name="RESEDA" class="cls-2" d="M123.124,1363.9a73.815,73.815,0,0,0,20.046-8.75,51.363,51.363,0,0,0,16.919-17.27q6.825-11.1,6.824-28.3,0-16.9-7.464-28.22-7.464-11.295-21.61-16.99t-34.051-5.68H31.279v205.58h11.09v-97.82h69.1l41.515,97.82h12.8Zm-80.756-9.1v-84.74H103.5q25.165,0,38.317,9.74t13.151,31.78q0,23.175-15.568,33.19-15.568,10.035-45.283,10.03H42.368Zm297.714,109.47v-11.66l-110.9-.28v-86.16h99.523v-11.66H229.185v-84.45H336.1v-11.37h-118v205.58H340.082Zm152.622-4.41q15.852-7.245,23.815-19.33a47.345,47.345,0,0,0,7.961-26.59,63.965,63.965,0,0,0-2.274-17.06,48.761,48.761,0,0,0-7.322-15.35,49.9,49.9,0,0,0-13.294-12.59,67.1,67.1,0,0,0-20.189-8.6l-43.079-11.37q-23.6-6.255-32.842-14.65t-9.242-21.61q0-11.79,5.119-20.26a43.626,43.626,0,0,1,13.364-13.93,61.1,61.1,0,0,1,17.914-8.1,71.091,71.091,0,0,1,18.767-2.63,79.722,79.722,0,0,1,25.947,4.19,46.783,46.783,0,0,1,20.758,14.07q8.457,9.885,10.023,26.95h12.512a51.029,51.029,0,0,0-7.607-26.87q-7.75-13.08-23.032-21.54t-38.174-8.46q-20.334,0-35.473,7.46t-23.53,20.33a52.071,52.071,0,0,0-8.388,29.08q0,18.33,12.085,29.78t34.406,17.13l44.928,11.38q12.935,3.27,20.97,9.24a36.663,36.663,0,0,1,11.872,14.5,47.016,47.016,0,0,1,3.839,19.48,33.154,33.154,0,0,1-7.607,21.47q-7.606,9.375-20.971,14.71t-30.994,5.33a81.847,81.847,0,0,1-27.866-4.69,57.927,57.927,0,0,1-22.25-14.07,47.444,47.444,0,0,1-12.3-23.32H378.04a57.516,57.516,0,0,0,9.028,22.82,61.739,61.739,0,0,0,16.848,16.63,77.517,77.517,0,0,0,22.677,10.24,98.491,98.491,0,0,0,26.373,3.48Q476.852,1467.11,492.7,1459.86Zm204.095,4.41v-11.66l-110.9-.28v-86.16h99.522v-11.66H585.9v-84.45H692.818v-11.37h-118v205.58H696.8Zm56.154,0h30.141q37.816,0,62.486-11.02t36.681-34.05q12.012-23.025,12.014-59.29,0-34.26-10.948-56.58t-34.548-33.27q-23.6-10.95-61.7-11.09-6.4,0-12.441-.07t-10.805-.07q-4.765,0-7.677-.07c-1.944-.05-3.01-0.07-3.2-0.07v205.58Zm30.994-193.93q31.419,0,53.387,7.97a62.017,62.017,0,0,1,33.482,27.65q11.515,19.695,11.516,55.09,0,33.555-11.161,53.67-11.163,20.13-33.411,29.01t-55.519,8.88H765.18V1270.34h18.767Zm147.861,193.93,24.17-64.83H1050.1l23.6,64.83h12.23l-75.07-205.58H995.218l-75.352,205.58h11.942Zm71.372-193.64,42.65,116.58H959.959Z"/>
    <path id="RESEDA-6" data-name="RESEDA" class="cls-2" d="M1423.12,1110.9a73.731,73.731,0,0,0,20.05-8.75,51.357,51.357,0,0,0,16.92-17.27q6.825-11.1,6.82-28.3,0-16.9-7.46-28.22-7.47-11.295-21.61-16.99t-34.05-5.68h-72.51v205.58h11.09v-97.82h69.1l41.51,97.82h12.8Zm-80.75-9.1v-84.74h61.13q25.17,0,38.32,9.74t13.15,31.78q0,23.175-15.57,33.19-15.57,10.035-45.28,10.03h-51.75Zm297.71,109.47v-11.66l-110.89-.28v-86.16h99.52v-11.66h-99.52v-84.45H1636.1v-11.37h-118v205.58h121.98Zm152.62-4.41q15.855-7.245,23.82-19.33a47.321,47.321,0,0,0,7.96-26.59,64.166,64.166,0,0,0-2.27-17.06,48.673,48.673,0,0,0-7.33-15.35,49.735,49.735,0,0,0-13.29-12.59,67.149,67.149,0,0,0-20.19-8.6l-43.08-11.37q-23.6-6.255-32.84-14.65t-9.24-21.61q0-11.79,5.12-20.26a43.571,43.571,0,0,1,13.36-13.93,61.129,61.129,0,0,1,17.92-8.1,71.046,71.046,0,0,1,18.76-2.63,79.744,79.744,0,0,1,25.95,4.19,46.778,46.778,0,0,1,20.76,14.07q8.445,9.885,10.02,26.95h12.51a51.093,51.093,0,0,0-7.6-26.87q-7.755-13.08-23.04-21.54t-38.17-8.46q-20.34,0-35.47,7.46-15.15,7.47-23.53,20.33a52.016,52.016,0,0,0-8.39,29.08q0,18.33,12.08,29.78t34.41,17.13l44.93,11.38q12.93,3.27,20.97,9.24a36.7,36.7,0,0,1,11.87,14.5,47,47,0,0,1,3.84,19.48,33.157,33.157,0,0,1-7.61,21.47q-7.605,9.375-20.97,14.71t-30.99,5.33a81.87,81.87,0,0,1-27.87-4.69,57.92,57.92,0,0,1-22.25-14.07,47.535,47.535,0,0,1-12.3-23.32h-12.51a57.637,57.637,0,0,0,9.03,22.82,61.607,61.607,0,0,0,16.85,16.63,77.346,77.346,0,0,0,22.67,10.24,98.522,98.522,0,0,0,26.38,3.48Q1776.85,1214.11,1792.7,1206.86Zm204.1,4.41v-11.66l-110.9-.28v-86.16h99.53v-11.66H1885.9v-84.45h106.92v-11.37H1874.81v205.58H1996.8Zm56.15,0h30.14q37.83,0,62.49-11.02t36.68-34.05q12.015-23.025,12.01-59.29,0-34.26-10.94-56.58t-34.55-33.27q-23.61-10.95-61.71-11.09-6.39,0-12.44-.07t-10.8-.07q-4.77,0-7.68-.07c-1.94-.05-3.01-0.07-3.2-0.07v205.58Zm31-193.93q31.41,0,53.38,7.97a62.02,62.02,0,0,1,33.49,27.65q11.5,19.695,11.51,55.09,0,33.555-11.16,53.67-11.16,20.13-33.41,29.01t-55.52,8.88h-17.06V1017.34h18.77Zm147.86,193.93,24.17-64.83h94.12l23.6,64.83h12.23l-75.07-205.58h-15.64l-75.35,205.58h11.94Zm71.37-193.64,42.65,116.58h-85.87Z"/>
    <path id="RESEDA-7" data-name="RESEDA" class="cls-2" d="M-610.876,1628.9a73.815,73.815,0,0,0,20.046-8.75,51.363,51.363,0,0,0,16.919-17.27q6.825-11.1,6.824-28.3,0-16.9-7.464-28.22-7.464-11.295-21.61-16.99t-34.051-5.68h-72.51v205.58h11.09v-97.82h69.1l41.515,97.82h12.8Zm-80.756-9.1v-84.74H-630.5q25.165,0,38.317,9.74t13.151,31.78q0,23.175-15.568,33.19-15.569,10.035-45.283,10.03h-51.752Zm297.714,109.47v-11.66l-110.9-.28v-86.16h99.523v-11.66h-99.523v-84.45H-397.9v-11.37h-118v205.58h121.986Zm152.622-4.41q15.852-7.245,23.815-19.33a47.345,47.345,0,0,0,7.961-26.59,63.965,63.965,0,0,0-2.274-17.06,48.761,48.761,0,0,0-7.322-15.35,49.9,49.9,0,0,0-13.294-12.59,67.1,67.1,0,0,0-20.189-8.6l-43.079-11.37q-23.6-6.255-32.842-14.65t-9.242-21.61q0-11.79,5.119-20.26a43.626,43.626,0,0,1,13.364-13.93,61.1,61.1,0,0,1,17.914-8.1,71.091,71.091,0,0,1,18.767-2.63,79.722,79.722,0,0,1,25.947,4.19,46.783,46.783,0,0,1,20.758,14.07q8.457,9.885,10.023,26.95h12.512a51.029,51.029,0,0,0-7.607-26.87q-7.751-13.08-23.032-21.54t-38.174-8.46q-20.334,0-35.473,7.46t-23.53,20.33a52.071,52.071,0,0,0-8.388,29.08q0,18.33,12.085,29.78t34.406,17.13l44.928,11.38q12.934,3.27,20.97,9.24a36.663,36.663,0,0,1,11.872,14.5,47.016,47.016,0,0,1,3.839,19.48,33.154,33.154,0,0,1-7.607,21.47q-7.607,9.375-20.971,14.71t-30.994,5.33a81.847,81.847,0,0,1-27.866-4.69,57.927,57.927,0,0,1-22.25-14.07,47.444,47.444,0,0,1-12.3-23.32H-355.96a57.516,57.516,0,0,0,9.028,22.82,61.739,61.739,0,0,0,16.848,16.63,77.517,77.517,0,0,0,22.677,10.24,98.491,98.491,0,0,0,26.373,3.48Q-257.148,1732.11-241.3,1724.86Zm204.1,4.41v-11.66l-110.9-.28v-86.16h99.522v-11.66H-148.1v-84.45H-41.182v-11.37H-159.187v205.58H-37.2Zm56.153,0H49.094q37.817,0,62.486-11.02t36.681-34.05q12.012-23.025,12.014-59.29,0-34.26-10.948-56.58t-34.548-33.27q-23.6-10.95-61.7-11.09-6.4,0-12.44-.07t-10.805-.07q-4.765,0-7.677-.07c-1.944-.05-3.01-0.07-3.2-0.07v205.58Zm30.994-193.93q31.419,0,53.387,7.97a62.017,62.017,0,0,1,33.482,27.65q11.516,19.695,11.516,55.09,0,33.555-11.161,53.67-11.163,20.13-33.411,29.01t-55.519,8.88H31.18V1535.34H49.947Zm147.861,193.93,24.17-64.83H316.1l23.6,64.83h12.227l-75.068-205.58h-15.64l-75.352,205.58h11.942Zm71.372-193.64,42.653,116.58H225.959Z"/>
    <path id="RESEDA-8" data-name="RESEDA" class="cls-2" d="M-808.876,1881.9a73.815,73.815,0,0,0,20.046-8.75,51.363,51.363,0,0,0,16.919-17.27q6.825-11.1,6.824-28.3,0-16.9-7.464-28.22-7.464-11.295-21.61-16.99t-34.051-5.68h-72.51v205.58h11.09v-97.82h69.1l41.515,97.82h12.8Zm-80.756-9.1v-84.74H-828.5q25.165,0,38.317,9.74t13.151,31.78q0,23.175-15.568,33.19-15.569,10.035-45.283,10.03h-51.752Zm297.714,109.47v-11.66l-110.9-.28v-86.16h99.523v-11.66h-99.523v-84.45H-595.9v-11.37h-118v205.58h121.986Zm152.622-4.41q15.852-7.245,23.815-19.33a47.345,47.345,0,0,0,7.961-26.59,63.965,63.965,0,0,0-2.274-17.06,48.761,48.761,0,0,0-7.322-15.35,49.9,49.9,0,0,0-13.294-12.59,67.1,67.1,0,0,0-20.189-8.6l-43.079-11.37q-23.6-6.255-32.842-14.65t-9.242-21.61q0-11.79,5.119-20.26a43.626,43.626,0,0,1,13.364-13.93,61.1,61.1,0,0,1,17.914-8.1,71.091,71.091,0,0,1,18.767-2.63,79.722,79.722,0,0,1,25.947,4.19,46.783,46.783,0,0,1,20.758,14.07q8.457,9.885,10.023,26.95h12.512a51.029,51.029,0,0,0-7.607-26.87q-7.751-13.08-23.032-21.54t-38.174-8.46q-20.334,0-35.473,7.46t-23.53,20.33a52.071,52.071,0,0,0-8.388,29.08q0,18.33,12.085,29.78t34.406,17.13l44.928,11.38q12.935,3.27,20.97,9.24a36.663,36.663,0,0,1,11.872,14.5,47.016,47.016,0,0,1,3.839,19.48,33.154,33.154,0,0,1-7.607,21.47q-7.606,9.375-20.971,14.71t-30.994,5.33a81.847,81.847,0,0,1-27.866-4.69,57.927,57.927,0,0,1-22.25-14.07,47.444,47.444,0,0,1-12.3-23.32H-553.96a57.516,57.516,0,0,0,9.028,22.82,61.739,61.739,0,0,0,16.848,16.63,77.517,77.517,0,0,0,22.677,10.24,98.491,98.491,0,0,0,26.373,3.48Q-455.148,1985.11-439.3,1977.86Zm204.1,4.41v-11.66l-110.9-.28v-86.16h99.522v-11.66H-346.1v-84.45h106.915v-11.37H-357.187v205.58H-235.2Zm56.154,0h30.141q37.817,0,62.486-11.02t36.681-34.05q12.013-23.025,12.014-59.29,0-34.26-10.948-56.58t-34.548-33.27q-23.6-10.95-61.7-11.09-6.4,0-12.441-.07t-10.8-.07q-4.766,0-7.677-.07c-1.944-.05-3.01-0.07-3.2-0.07v205.58Zm30.994-193.93q31.419,0,53.387,7.97a62.016,62.016,0,0,1,33.482,27.65q11.516,19.695,11.516,55.09,0,33.555-11.161,53.67-11.163,20.13-33.411,29.01t-55.519,8.88H-166.82V1788.34h18.767ZM-0.192,1982.27l24.17-64.83H118.1l23.6,64.83h12.227L78.858,1776.69H63.218l-75.353,205.58H-0.192ZM71.18,1788.63l42.653,116.58H27.959Z"/>
    <path id="RESEDA-9" data-name="RESEDA" class="cls-2" d="M2341.12,1363.9a73.731,73.731,0,0,0,20.05-8.75,51.357,51.357,0,0,0,16.92-17.27q6.825-11.1,6.82-28.3,0-16.9-7.46-28.22-7.47-11.295-21.61-16.99t-34.05-5.68h-72.51v205.58h11.09v-97.82h69.1l41.51,97.82h12.8Zm-80.75-9.1v-84.74h61.13q25.17,0,38.32,9.74t13.15,31.78q0,23.175-15.57,33.19-15.57,10.035-45.28,10.03h-51.75Zm297.71,109.47v-11.66l-110.89-.28v-86.16h99.52v-11.66h-99.52v-84.45H2554.1v-11.37h-118v205.58h121.98Zm152.62-4.41q15.855-7.245,23.82-19.33a47.321,47.321,0,0,0,7.96-26.59,64.166,64.166,0,0,0-2.27-17.06,48.673,48.673,0,0,0-7.33-15.35,49.735,49.735,0,0,0-13.29-12.59,67.149,67.149,0,0,0-20.19-8.6l-43.08-11.37q-23.595-6.255-32.84-14.65t-9.24-21.61q0-11.79,5.12-20.26a43.571,43.571,0,0,1,13.36-13.93,61.129,61.129,0,0,1,17.92-8.1,71.046,71.046,0,0,1,18.76-2.63,79.744,79.744,0,0,1,25.95,4.19,46.778,46.778,0,0,1,20.76,14.07q8.445,9.885,10.02,26.95h12.51a51.093,51.093,0,0,0-7.6-26.87q-7.755-13.08-23.04-21.54t-38.17-8.46q-20.34,0-35.47,7.46-15.15,7.47-23.53,20.33a52.016,52.016,0,0,0-8.39,29.08q0,18.33,12.08,29.78t34.41,17.13l44.93,11.38q12.93,3.27,20.97,9.24a36.7,36.7,0,0,1,11.87,14.5,47,47,0,0,1,3.84,19.48,33.157,33.157,0,0,1-7.61,21.47q-7.6,9.375-20.97,14.71t-30.99,5.33a81.87,81.87,0,0,1-27.87-4.69,57.92,57.92,0,0,1-22.25-14.07,47.535,47.535,0,0,1-12.3-23.32h-12.51a57.637,57.637,0,0,0,9.03,22.82,61.607,61.607,0,0,0,16.85,16.63,77.346,77.346,0,0,0,22.67,10.24,98.522,98.522,0,0,0,26.38,3.48Q2694.85,1467.11,2710.7,1459.86Zm204.1,4.41v-11.66l-110.9-.28v-86.16h99.53v-11.66H2803.9v-84.45h106.92v-11.37H2792.81v205.58H2914.8Zm56.15,0h30.14q37.83,0,62.49-11.02t36.68-34.05q12.015-23.025,12.01-59.29,0-34.26-10.94-56.58t-34.55-33.27q-23.61-10.95-61.71-11.09-6.39,0-12.44-.07t-10.8-.07q-4.77,0-7.68-.07c-1.94-.05-3.01-0.07-3.2-0.07v205.58Zm31-193.93q31.41,0,53.38,7.97a62.02,62.02,0,0,1,33.49,27.65q11.5,19.695,11.51,55.09,0,33.555-11.16,53.67-11.16,20.13-33.41,29.01t-55.52,8.88h-17.06V1270.34h18.77Zm147.86,193.93,24.17-64.83h94.12l23.6,64.83h12.23l-75.07-205.58h-15.64l-75.35,205.58h11.94Zm71.37-193.64,42.65,116.58h-85.87Z"/>
    <path id="RESEDA-10" data-name="RESEDA" class="cls-2" d="M307.124,1110.9a73.815,73.815,0,0,0,20.046-8.75,51.363,51.363,0,0,0,16.919-17.27q6.825-11.1,6.824-28.3,0-16.9-7.464-28.22-7.464-11.295-21.61-16.99t-34.051-5.68h-72.51v205.58h11.09v-97.82h69.1l41.515,97.82h12.8Zm-80.756-9.1v-84.74H287.5q25.166,0,38.317,9.74t13.151,31.78q0,23.175-15.568,33.19-15.569,10.035-45.283,10.03H226.368Zm297.714,109.47v-11.66l-110.9-.28v-86.16h99.523v-11.66H413.185v-84.45H520.1v-11.37h-118v205.58H524.082Zm152.622-4.41q15.852-7.245,23.815-19.33a47.345,47.345,0,0,0,7.961-26.59,63.965,63.965,0,0,0-2.274-17.06,48.761,48.761,0,0,0-7.322-15.35,49.9,49.9,0,0,0-13.294-12.59,67.1,67.1,0,0,0-20.189-8.6l-43.079-11.37q-23.6-6.255-32.842-14.65t-9.242-21.61q0-11.79,5.119-20.26a43.626,43.626,0,0,1,13.364-13.93,61.1,61.1,0,0,1,17.914-8.1,71.091,71.091,0,0,1,18.767-2.63,79.722,79.722,0,0,1,25.947,4.19,46.783,46.783,0,0,1,20.758,14.07q8.457,9.885,10.023,26.95h12.512a51.029,51.029,0,0,0-7.607-26.87q-7.75-13.08-23.032-21.54t-38.174-8.46q-20.334,0-35.473,7.46t-23.53,20.33a52.071,52.071,0,0,0-8.388,29.08q0,18.33,12.085,29.78t34.406,17.13l44.928,11.38q12.935,3.27,20.97,9.24a36.663,36.663,0,0,1,11.872,14.5,47.016,47.016,0,0,1,3.839,19.48,33.154,33.154,0,0,1-7.607,21.47q-7.607,9.375-20.971,14.71t-30.994,5.33a81.847,81.847,0,0,1-27.866-4.69,57.927,57.927,0,0,1-22.25-14.07,47.444,47.444,0,0,1-12.3-23.32H562.04a57.516,57.516,0,0,0,9.028,22.82,61.739,61.739,0,0,0,16.848,16.63,77.517,77.517,0,0,0,22.677,10.24,98.491,98.491,0,0,0,26.373,3.48Q660.852,1214.11,676.7,1206.86Zm204.1,4.41v-11.66l-110.9-.28v-86.16h99.522v-11.66H769.9v-84.45H876.818v-11.37h-118v205.58H880.8Zm56.154,0h30.141q37.816,0,62.486-11.02t36.68-34.05q12.015-23.025,12.01-59.29,0-34.26-10.94-56.58t-34.55-33.27q-23.61-10.95-61.7-11.09-6.4,0-12.441-.07t-10.805-.07q-4.765,0-7.677-.07c-1.944-.05-3.01-0.07-3.2-0.07v205.58Zm30.994-193.93q31.419,0,53.383,7.97a62.02,62.02,0,0,1,33.49,27.65q11.505,19.695,11.51,55.09,0,33.555-11.16,53.67-11.16,20.13-33.41,29.01t-55.519,8.88H949.18V1017.34h18.767Zm147.863,193.93,24.17-64.83h94.12l23.6,64.83h12.23l-75.07-205.58h-15.64l-75.35,205.58h11.94Zm71.37-193.64,42.65,116.58h-85.87Z"/>
    <path id="RESEDA-11" data-name="RESEDA" class="cls-2" d="M1783.12,845.9a73.487,73.487,0,0,0,20.05-8.743,51.373,51.373,0,0,0,16.92-17.275q6.825-11.089,6.82-28.292,0-16.918-7.46-28.222t-21.61-16.99q-14.145-5.685-34.05-5.687h-72.51V946.271h11.09V848.455h69.1l41.51,97.816h12.8Zm-80.75-9.1V752.06h61.13q25.17,0,38.32,9.739t13.15,31.776q0,23.175-15.57,33.2T1754.12,836.8h-51.75Zm297.71,109.475V934.613l-110.89-.285V848.17h99.52V836.512h-99.52V752.06H1996.1V740.686h-118V946.271h121.98Zm152.62-4.407q15.855-7.251,23.82-19.336a47.3,47.3,0,0,0,7.96-26.587,64.129,64.129,0,0,0-2.27-17.061,48.75,48.75,0,0,0-7.33-15.355,49.742,49.742,0,0,0-13.29-12.582,67.1,67.1,0,0,0-20.19-8.6l-43.08-11.374q-23.595-6.255-32.84-14.644t-9.24-21.611q0-11.8,5.12-20.26a43.6,43.6,0,0,1,13.36-13.933,61.347,61.347,0,0,1,17.92-8.1,71.378,71.378,0,0,1,18.76-2.63,79.907,79.907,0,0,1,25.95,4.194,46.709,46.709,0,0,1,20.76,14.076q8.445,9.884,10.02,26.942h12.51a51.116,51.116,0,0,0-7.6-26.871q-7.755-13.08-23.04-21.54t-38.17-8.459q-20.34,0-35.47,7.464a57.844,57.844,0,0,0-23.53,20.331A52.007,52.007,0,0,0,2044.44,795q0,18.341,12.08,29.785t34.41,17.133l44.93,11.374q12.93,3.272,20.97,9.241a36.733,36.733,0,0,1,11.87,14.5,46.988,46.988,0,0,1,3.84,19.478,33.149,33.149,0,0,1-7.61,21.468q-7.6,9.384-20.97,14.715t-30.99,5.332a81.92,81.92,0,0,1-27.87-4.692,57.965,57.965,0,0,1-22.25-14.075,47.508,47.508,0,0,1-12.3-23.317h-12.51a57.639,57.639,0,0,0,9.03,22.819,61.653,61.653,0,0,0,16.85,16.635,77.546,77.546,0,0,0,22.67,10.236,98.442,98.442,0,0,0,26.38,3.483Q2136.85,949.114,2152.7,941.864Zm204.1,4.407V934.613l-110.9-.285V848.17h99.53V836.512H2245.9V752.06h106.92V740.686H2234.81V946.271H2356.8Zm56.15,0h30.14q37.83,0,62.49-11.019t36.68-34.051q12.015-23.031,12.01-59.286,0-34.263-10.94-56.586t-34.55-33.269q-23.61-10.947-61.71-11.09-6.39,0-12.44-.071t-10.8-.071q-4.77,0-7.68-.071c-1.94-.047-3.01-0.071-3.2-0.071V946.271Zm31-193.927q31.41,0,53.38,7.962a62.034,62.034,0,0,1,33.49,27.653q11.5,19.693,11.51,55.093,0,33.555-11.16,53.671t-33.41,29q-22.245,8.886-55.52,8.886h-17.06V752.344h18.77Zm147.86,193.927,24.17-64.832h94.12l23.6,64.832h12.23l-75.07-205.585h-15.64l-75.35,205.585h11.94Zm71.37-193.642,42.65,116.583h-85.87Z"/>
    <path id="RESEDA-12" data-name="RESEDA" class="cls-2" d="M667.124,845.9a73.57,73.57,0,0,0,20.046-8.743,51.38,51.38,0,0,0,16.919-17.275q6.825-11.089,6.824-28.292,0-16.918-7.464-28.222t-21.61-16.99q-14.15-5.685-34.051-5.687h-72.51V946.271h11.09V848.455h69.1l41.515,97.816h12.8Zm-80.756-9.1V752.06H647.5q25.165,0,38.317,9.739t13.151,31.776q0,23.175-15.568,33.2T638.12,836.8H586.368ZM884.082,946.271V934.613l-110.9-.285V848.17h99.523V836.512H773.185V752.06H880.1V740.686h-118V946.271H884.082Zm152.618-4.407q15.855-7.251,23.82-19.336a47.3,47.3,0,0,0,7.96-26.587,64.129,64.129,0,0,0-2.27-17.061,48.75,48.75,0,0,0-7.33-15.355,49.742,49.742,0,0,0-13.29-12.582,67.1,67.1,0,0,0-20.19-8.6l-43.078-11.374q-23.6-6.255-32.842-14.644t-9.242-21.611q0-11.8,5.119-20.26a43.656,43.656,0,0,1,13.364-13.933,61.313,61.313,0,0,1,17.914-8.1,71.423,71.423,0,0,1,18.767-2.63,79.9,79.9,0,0,1,25.948,4.194,46.709,46.709,0,0,1,20.76,14.076q8.445,9.884,10.02,26.942h12.51a51.116,51.116,0,0,0-7.6-26.871q-7.755-13.08-23.04-21.54t-38.171-8.459q-20.334,0-35.473,7.464a57.9,57.9,0,0,0-23.53,20.331A52.061,52.061,0,0,0,928.438,795q0,18.341,12.085,29.785t34.406,17.133l44.931,11.374q12.93,3.272,20.97,9.241a36.733,36.733,0,0,1,11.87,14.5,46.988,46.988,0,0,1,3.84,19.478,33.149,33.149,0,0,1-7.61,21.468q-7.605,9.384-20.97,14.715t-30.994,5.332a81.9,81.9,0,0,1-27.866-4.692,57.973,57.973,0,0,1-22.25-14.075,47.417,47.417,0,0,1-12.3-23.317H922.04a57.518,57.518,0,0,0,9.028,22.819A61.785,61.785,0,0,0,947.916,935.4a77.718,77.718,0,0,0,22.677,10.236,98.412,98.412,0,0,0,26.373,3.483Q1020.852,949.114,1036.7,941.864Zm204.1,4.407V934.613l-110.9-.285V848.17h99.53V836.512H1129.9V752.06h106.92V740.686H1118.81V946.271H1240.8Zm56.15,0h30.14q37.83,0,62.49-11.019t36.68-34.051q12.015-23.031,12.01-59.286,0-34.263-10.94-56.586t-34.55-33.269q-23.61-10.947-61.71-11.09-6.39,0-12.44-.071t-10.8-.071q-4.77,0-7.68-.071c-1.94-.047-3.01-0.071-3.2-0.071V946.271Zm31-193.927q31.41,0,53.38,7.962a62.034,62.034,0,0,1,33.49,27.653q11.505,19.693,11.51,55.093,0,33.555-11.16,53.671t-33.41,29q-22.245,8.886-55.52,8.886h-17.06V752.344h18.77Zm147.86,193.927,24.17-64.832h94.12l23.6,64.832h12.23l-75.07-205.585h-15.64l-75.35,205.585h11.94Zm71.37-193.642,42.65,116.583h-85.87Z"/>
    <path id="RESEDA-13" data-name="RESEDA" class="cls-2" d="M-794.876,1110.9a73.815,73.815,0,0,0,20.046-8.75,51.363,51.363,0,0,0,16.919-17.27q6.825-11.1,6.824-28.3,0-16.9-7.464-28.22-7.464-11.295-21.61-16.99t-34.051-5.68h-72.51v205.58h11.09v-97.82h69.1l41.515,97.82h12.8Zm-80.756-9.1v-84.74H-814.5q25.165,0,38.317,9.74t13.151,31.78q0,23.175-15.568,33.19-15.569,10.035-45.283,10.03h-51.752Zm297.714,109.47v-11.66l-110.9-.28v-86.16h99.523v-11.66h-99.523v-84.45H-581.9v-11.37h-118v205.58h121.986Zm152.622-4.41q15.852-7.245,23.815-19.33a47.345,47.345,0,0,0,7.961-26.59,63.965,63.965,0,0,0-2.274-17.06,48.761,48.761,0,0,0-7.322-15.35,49.9,49.9,0,0,0-13.294-12.59,67.1,67.1,0,0,0-20.189-8.6l-43.079-11.37q-23.6-6.255-32.842-14.65t-9.242-21.61q0-11.79,5.119-20.26a43.626,43.626,0,0,1,13.364-13.93,61.1,61.1,0,0,1,17.914-8.1,71.091,71.091,0,0,1,18.767-2.63,79.722,79.722,0,0,1,25.947,4.19,46.783,46.783,0,0,1,20.758,14.07q8.457,9.885,10.023,26.95h12.512a51.029,51.029,0,0,0-7.607-26.87q-7.751-13.08-23.032-21.54t-38.174-8.46q-20.334,0-35.473,7.46t-23.53,20.33a52.071,52.071,0,0,0-8.388,29.08q0,18.33,12.085,29.78t34.406,17.13l44.928,11.38q12.935,3.27,20.97,9.24a36.663,36.663,0,0,1,11.872,14.5,47.016,47.016,0,0,1,3.839,19.48,33.154,33.154,0,0,1-7.607,21.47q-7.606,9.375-20.971,14.71t-30.994,5.33a81.847,81.847,0,0,1-27.866-4.69,57.927,57.927,0,0,1-22.25-14.07,47.444,47.444,0,0,1-12.3-23.32H-539.96a57.516,57.516,0,0,0,9.028,22.82,61.739,61.739,0,0,0,16.848,16.63,77.517,77.517,0,0,0,22.677,10.24,98.491,98.491,0,0,0,26.373,3.48Q-441.148,1214.11-425.3,1206.86Zm204.1,4.41v-11.66l-110.9-.28v-86.16h99.522v-11.66H-332.1v-84.45h106.915v-11.37H-343.187v205.58H-221.2Zm56.154,0h30.141q37.817,0,62.486-11.02t36.681-34.05q12.013-23.025,12.014-59.29,0-34.26-10.948-56.58t-34.548-33.27q-23.6-10.95-61.7-11.09-6.4,0-12.441-.07t-10.8-.07q-4.766,0-7.677-.07c-1.944-.05-3.01-0.07-3.2-0.07v205.58Zm30.994-193.93q31.419,0,53.387,7.97a62.016,62.016,0,0,1,33.482,27.65q11.516,19.695,11.516,55.09,0,33.555-11.161,53.67-11.163,20.13-33.411,29.01t-55.519,8.88H-152.82V1017.34h18.767ZM13.808,1211.27l24.17-64.83H132.1l23.6,64.83h12.227L92.858,1005.69H77.218L1.866,1211.27H13.808ZM85.18,1017.63l42.653,116.58H41.959Z"/>
    <path id="RESEDA-14" data-name="RESEDA" class="cls-2" d="M491.124,1628.9a73.815,73.815,0,0,0,20.046-8.75,51.363,51.363,0,0,0,16.919-17.27q6.825-11.1,6.824-28.3,0-16.9-7.464-28.22-7.464-11.295-21.61-16.99t-34.051-5.68h-72.51v205.58h11.09v-97.82h69.1l41.515,97.82h12.8Zm-80.756-9.1v-84.74H471.5q25.166,0,38.317,9.74t13.151,31.78q0,23.175-15.568,33.19-15.569,10.035-45.283,10.03H410.368Zm297.714,109.47v-11.66l-110.9-.28v-86.16h99.523v-11.66H597.185v-84.45H704.1v-11.37h-118v205.58H708.082Zm152.622-4.41q15.852-7.245,23.815-19.33a47.345,47.345,0,0,0,7.961-26.59,63.965,63.965,0,0,0-2.274-17.06,48.761,48.761,0,0,0-7.322-15.35,49.9,49.9,0,0,0-13.294-12.59,67.1,67.1,0,0,0-20.189-8.6l-43.079-11.37q-23.6-6.255-32.842-14.65t-9.242-21.61q0-11.79,5.119-20.26a43.626,43.626,0,0,1,13.364-13.93,61.1,61.1,0,0,1,17.914-8.1,71.091,71.091,0,0,1,18.767-2.63,79.722,79.722,0,0,1,25.947,4.19,46.783,46.783,0,0,1,20.758,14.07q8.457,9.885,10.023,26.95h12.512a51.029,51.029,0,0,0-7.607-26.87q-7.75-13.08-23.032-21.54t-38.174-8.46q-20.334,0-35.473,7.46t-23.53,20.33a52.071,52.071,0,0,0-8.388,29.08q0,18.33,12.085,29.78t34.406,17.13l44.928,11.38q12.935,3.27,20.97,9.24a36.663,36.663,0,0,1,11.872,14.5,47.016,47.016,0,0,1,3.839,19.48,33.154,33.154,0,0,1-7.607,21.47q-7.607,9.375-20.971,14.71t-30.994,5.33a81.847,81.847,0,0,1-27.866-4.69,57.927,57.927,0,0,1-22.25-14.07,47.444,47.444,0,0,1-12.3-23.32H746.04a57.516,57.516,0,0,0,9.028,22.82,61.739,61.739,0,0,0,16.848,16.63,77.517,77.517,0,0,0,22.677,10.24,98.491,98.491,0,0,0,26.373,3.48Q844.852,1732.11,860.7,1724.86Zm204.1,4.41v-11.66l-110.9-.28v-86.16h99.527v-11.66H953.9v-84.45H1060.82v-11.37H942.813v205.58H1064.8Zm56.15,0h30.14q37.83,0,62.49-11.02t36.68-34.05q12.015-23.025,12.01-59.29,0-34.26-10.94-56.58t-34.55-33.27q-23.61-10.95-61.71-11.09-6.39,0-12.44-.07t-10.8-.07q-4.77,0-7.68-.07c-1.94-.05-3.01-0.07-3.2-0.07v205.58Zm31-193.93q31.41,0,53.38,7.97a62.02,62.02,0,0,1,33.49,27.65q11.505,19.695,11.51,55.09,0,33.555-11.16,53.67-11.16,20.13-33.41,29.01t-55.52,8.88h-17.06V1535.34h18.77Zm147.86,193.93,24.17-64.83h94.12l23.6,64.83h12.23l-75.07-205.58h-15.64l-75.35,205.58h11.94Zm71.37-193.64,42.65,116.58h-85.87Z"/>
  </g>
</svg>
